<?xml version="1.0" encoding="UTF-8" standalone="no"?>
<svg
   xmlns:dc="http://purl.org/dc/elements/1.1/"
   xmlns:cc="http://creativecommons.org/ns#"
   xmlns:rdf="http://www.w3.org/1999/02/22-rdf-syntax-ns#"
   xmlns:svg="http://www.w3.org/2000/svg"
   xmlns="http://www.w3.org/2000/svg"
   xmlns:sodipodi="http://sodipodi.sourceforge.net/DTD/sodipodi-0.dtd"
   xmlns:inkscape="http://www.inkscape.org/namespaces/inkscape"
   viewBox="0 0 296.92968 119.77205"
   version="1.1"
   id="svg1026"
   sodipodi:docname="logo.svg"
   inkscape:version="1.0.2 (1.0.2+r75+1)"
   width="296.92969"
   height="119.77205">
  <metadata
     id="metadata1030">
    <rdf:RDF>
      <cc:Work
         rdf:about="">
        <dc:format>image/svg+xml</dc:format>
        <dc:type
           rdf:resource="http://purl.org/dc/dcmitype/StillImage" />
        <dc:title></dc:title>
      </cc:Work>
    </rdf:RDF>
  </metadata>
  <sodipodi:namedview
     pagecolor="#ffffff"
     bordercolor="#999999"
     borderopacity="1"
     objecttolerance="10"
     gridtolerance="10"
     guidetolerance="10"
     inkscape:pageopacity="0"
     inkscape:pageshadow="2"
     inkscape:window-width="1920"
     inkscape:window-height="1013"
     id="namedview1028"
     showgrid="false"
     showguides="true"
     inkscape:guide-bbox="true"
     inkscape:zoom="2.0109131"
     inkscape:cx="114.16206"
     inkscape:cy="108.54207"
     inkscape:window-x="0"
     inkscape:window-y="30"
     inkscape:window-maximized="1"
     inkscape:current-layer="layer2"
     fit-margin-top="0"
     fit-margin-left="0"
     fit-margin-right="0"
     fit-margin-bottom="0">
    <sodipodi:guide
       position="246.34726,0.00013373343"
       orientation="0,-1"
       id="guide1141" />
  </sodipodi:namedview>
  <defs
     id="defs996">
    <style
       id="style994">.cls-1{fill:#fff;}.cls-2{fill:#ffe168;}</style>
  </defs>
  <g
     inkscape:groupmode="layer"
     id="layer1"
     inkscape:label="Layer 1"
     style="display:inline"
     transform="translate(69.810547,39.211498)">
    <path
       id="path1139"
       style="fill:#0d2028;fill-opacity:1;stroke-width:0.24995;stroke-linejoin:round;stroke-dasharray:0.499901, 0.24995, 0.124976, 0.24995;paint-order:stroke fill markers;stop-color:#000000"
       d="m 57.964844,-39.210938 a 110.20401,88.544743 82.398574 0 0 -4.472656,0.158204 110.20401,88.544743 82.398574 0 0 -72.529297,62.541015 43.580555,36.858833 49.351632 0 0 -12.746094,6.640625 43.580555,36.858833 49.351632 0 0 -11.445313,27.490235 10.178365,11.342479 62.083424 0 0 -5.296875,1.695312 10.178365,11.342479 62.083424 0 0 -5.041015,13.410156 148.75204,19.776337 0 0 0 -16.244141,7.835938 H 227.11914 A 148.75204,19.776337 0 0 0 212.72266,73.21875 17.710844,17.579762 0 0 0 203.66797,61.308594 23.080326,17.710844 77.411344 0 0 203.4668,49.546875 23.080326,17.710844 77.411344 0 0 189.47852,31.558594 63.170509,58.583279 42.808173 0 0 169.84375,-1.875 63.170509,58.583279 42.808173 0 0 125.47852,-19.640625 63.170509,58.583279 42.808173 0 0 111.66211,-18.035156 110.20401,88.544743 82.398574 0 0 57.964844,-39.210938 Z" />
  </g>
  <g
     inkscape:groupmode="layer"
     id="layer2"
     inkscape:label="Layer 2"
     style="display:inline"
     transform="translate(69.810547,39.211498)">
    <g
       id="Layer_2"
       data-name="Layer 2"
       transform="translate(0,-4)">
      <g
         id="Layer_1-2"
         data-name="Layer 1">
        <path
           class="cls-1"
           d="M 0.34,43.08 C 0.22,42.18 0.14,41.2 0.08,40.13 0.02,39.06 0,38.08 0,37.15 q 0,-2.2 0.15,-4.23 c 0.1,-1.35 0.23,-2.77 0.37,-4.25 0.14,-1.48 0.31,-3.1 0.49,-4.84 0.18,-1.74 0.33,-3.77 0.47,-6 A 4.62,4.62 0 0 1 2.74,18 c 0.55,0.16 1.1,0.35 1.66,0.57 a 13.06,13.06 0 0 1 1.48,0.68 c 0.43,0.23 0.68,0.42 0.74,0.57 a 17.94,17.94 0 0 0 -1,3.38 c -0.31,1.4 -0.56,2.92 -0.76,4.57 -0.2,1.65 -0.36,3.33 -0.47,5.07 -0.11,1.74 -0.17,3.36 -0.17,4.88 0,0.7 0,1.39 0,2.07 0,0.68 0,1.31 0.1,1.88 A 23.42,23.42 0 0 0 6,38.78 q 0.92,-1.89 1.91,-4.23 c 0.66,-1.56 1.33,-3.19 2,-4.89 0.67,-1.7 1.27,-3.33 1.83,-4.88 0.56,-1.55 1,-2.94 1.43,-4.18 0.43,-1.24 0.66,-2.18 0.82,-2.82 a 4.93,4.93 0 0 1 1.29,0.25 16,16 0 0 1 1.69,0.57 15.56,15.56 0 0 1 1.46,0.68 c 0.42,0.23 0.66,0.42 0.7,0.57 a 17.94,17.94 0 0 0 -1,3.38 c -0.3,1.4 -0.56,2.92 -0.76,4.57 -0.2,1.65 -0.36,3.33 -0.47,5.07 -0.11,1.74 -0.17,3.36 -0.17,4.88 0,0.63 0,1.26 0,1.89 0,0.63 0,1.19 0.08,1.7 0.72,-1.83 1.47,-3.63 2.24,-5.42 0.77,-1.79 1.54,-3.51 2.3,-5.14 0.76,-1.63 1.5,-3.17 2.22,-4.58 0.72,-1.41 1.38,-2.68 2,-3.79 0.62,-1.11 1.14,-2 1.58,-2.75 a 8.15,8.15 0 0 1 1.05,-1.45 4.41,4.41 0 0 1 1.59,0.54 5.81,5.81 0 0 1 1.47,1.14 12,12 0 0 0 -2.26,2.49 q -1.25,1.73 -2.56,4 c -0.87,1.51 -1.75,3.13 -2.64,4.84 -0.89,1.71 -1.71,3.38 -2.47,5 -0.76,1.62 -1.44,3.14 -2,4.55 -0.56,1.41 -1.05,2.53 -1.36,3.39 a 4.26,4.26 0 0 1 -1.72,0.4 8.09,8.09 0 0 1 -2,-0.53 3,3 0 0 1 -1.36,-1 11.09,11.09 0 0 1 -0.17,-1.23 c -0.05,-0.47 -0.08,-0.94 -0.1,-1.4 -0.02,-0.46 0,-0.91 0,-1.34 0,-0.43 0,-0.79 0,-1.1 q 0,-2.94 0.24,-6 0.24,-3.06 0.57,-6.54 c -0.52,1.49 -1.09,3.1 -1.72,4.81 -0.63,1.71 -1.28,3.41 -2,5.09 C 8.99,37 8.22,38.67 7.51,40.2 a 41,41 0 0 1 -2.06,4 4.26,4.26 0 0 1 -1.72,0.4 8,8 0 0 1 -2,-0.53 2.94,2.94 0 0 1 -1.39,-0.99 z"
           id="path998" />
        <path
           class="cls-1"
           d="m 38.32,28.42 a 11,11 0 0 1 -0.74,3.51 7.62,7.62 0 0 1 -1.73,2.57 12.16,12.16 0 0 1 -2.74,2 29.14,29.14 0 0 1 -3.76,1.72 c 0,0.13 0,0.27 0,0.41 0,0.14 0,0.29 0,0.44 a 5.42,5.42 0 0 0 0.07,0.89 3,3 0 0 0 0.24,0.86 1.53,1.53 0 0 0 0.47,0.64 1.13,1.13 0 0 0 0.77,0.25 4.19,4.19 0 0 0 1.78,-0.4 8.67,8.67 0 0 0 1.66,-1 12.7,12.7 0 0 0 1.48,-1.25 c 0.46,-0.45 0.87,-0.86 1.23,-1.24 0.22,0.2 0.41,0.39 0.57,0.56 a 15.79,15.79 0 0 1 -3.31,3.28 9.66,9.66 0 0 1 -3.41,1.67 5.55,5.55 0 0 1 -3.61,-1.67 4.76,4.76 0 0 1 -1.29,-3.35 10.33,10.33 0 0 1 0.39,-2.76 13,13 0 0 1 1.07,-2.7 15.74,15.74 0 0 1 1.54,-2.45 12.58,12.58 0 0 1 2,-2 9.61,9.61 0 0 1 2.2,-1.4 5.5,5.5 0 0 1 2.23,-0.5 4.57,4.57 0 0 1 2.89,1.92 z M 36,29.51 a 5.18,5.18 0 0 0 -1.88,0.72 7.91,7.91 0 0 0 -1.83,1.59 12.2,12.2 0 0 0 -1.57,2.3 12.7,12.7 0 0 0 -1.1,2.88 15,15 0 0 0 4.47,-3.24 6.74,6.74 0 0 0 1.91,-4.25 z"
           id="path1000" />
        <path
           class="cls-1"
           d="m 51.47,28.75 a 3.09,3.09 0 0 1 0.78,0.12 3.85,3.85 0 0 1 0.83,0.29 3.5,3.5 0 0 1 0.62,0.38 c 0.17,0.13 0.25,0.25 0.25,0.36 -0.45,0.93 -0.86,1.85 -1.24,2.79 -0.38,0.94 -0.71,1.83 -1,2.68 -0.29,0.85 -0.47,1.66 -0.62,2.41 a 10.85,10.85 0 0 0 -0.22,1.94 4.7,4.7 0 0 0 0.21,1.53 1.46,1.46 0 0 0 0.67,0.88 3.74,3.74 0 0 1 -1,0.43 4.65,4.65 0 0 1 -1.15,0.16 c -1.21,0 -1.81,-0.81 -1.81,-2.44 A 15.26,15.26 0 0 1 49,35.14 18.83,18.83 0 0 1 47.5,38 20.29,20.29 0 0 1 45.72,40.35 10.57,10.57 0 0 1 43.88,42 a 4.17,4.17 0 0 1 -1.69,0.77 2.38,2.38 0 0 1 -2,-1.1 4.82,4.82 0 0 1 -0.77,-2.83 10.84,10.84 0 0 1 0.8,-3.91 17.68,17.68 0 0 1 2.07,-3.8 14.32,14.32 0 0 1 2.71,-2.95 4.69,4.69 0 0 1 2.87,-1.18 2.77,2.77 0 0 1 0.75,0.4 6.44,6.44 0 0 1 0.81,0.69 5.27,5.27 0 0 1 0.66,0.8 1.7,1.7 0 0 1 0.3,0.71 6.1,6.1 0 0 0 -2.77,1.28 13.41,13.41 0 0 0 -2.62,2.62 14.91,14.91 0 0 0 -1.9,3.27 8.39,8.39 0 0 0 -0.71,3.23 0.74,0.74 0 0 0 0.47,0.79 4.67,4.67 0 0 0 2.25,-1.63 31.8,31.8 0 0 0 3.09,-4.43 l 0.8,-1.3 c 0.28,-0.48 0.57,-1 0.86,-1.52 0.29,-0.52 0.57,-1.06 0.86,-1.59 0.29,-0.53 0.5,-1.06 0.75,-1.57 z"
           id="path1002" />
        <path
           class="cls-1"
           d="m 57.08,29.44 a 2.12,2.12 0 0 1 -0.3,-0.84 5.5,5.5 0 0 1 -0.14,-1.1 10.93,10.93 0 0 0 1.68,0.13 h 1.48 c 0.34,-0.65 0.7,-1.3 1.09,-1.94 0.39,-0.64 0.78,-1.22 1.15,-1.76 a 14.62,14.62 0 0 1 1,-1.35 3.81,3.81 0 0 1 0.76,-0.72 4,4 0 0 1 0.85,0.12 c 0.35,0.08 0.7,0.18 1.06,0.3 a 9.13,9.13 0 0 1 1,0.38 1.72,1.72 0 0 1 0.6,0.39 c -0.67,0.83 -1.25,1.6 -1.73,2.31 -0.48,0.71 -1,1.52 -1.56,2.44 h 1.38 a 11,11 0 0 0 1.39,-0.1 1,1 0 0 1 0.27,0.41 1.25,1.25 0 0 1 0.1,0.51 11.24,11.24 0 0 1 -4,0.62 c -0.56,1.06 -1.06,2.11 -1.49,3.16 -0.43,1.05 -0.81,2.05 -1.11,3 a 27.87,27.87 0 0 0 -0.71,2.74 12,12 0 0 0 -0.25,2.32 c 0,1 0.37,1.5 1.11,1.61 a 7.55,7.55 0 0 0 1.91,-0.49 6.38,6.38 0 0 0 1.62,-0.92 1.38,1.38 0 0 1 0.23,0.49 3.16,3.16 0 0 1 -0.69,0.69 13,13 0 0 1 -1.05,0.77 12,12 0 0 1 -1.11,0.64 3,3 0 0 1 -0.81,0.29 A 4.57,4.57 0 0 1 59.13,43.21 7,7 0 0 1 57.6,42.39 4.78,4.78 0 0 1 56.47,41.28 2.08,2.08 0 0 1 56,40.1 a 12,12 0 0 1 0.21,-2 c 0.15,-0.8 0.36,-1.67 0.63,-2.62 0.27,-0.95 0.58,-1.94 0.94,-3 0.36,-1.06 0.75,-2.06 1.17,-3.07 z"
           id="path1004" />
        <path
           class="cls-1"
           d="m 66.89,41.5 a 18.35,18.35 0 0 1 0.24,-2.72 c 0.16,-1 0.39,-2.15 0.69,-3.34 0.3,-1.19 0.66,-2.43 1.07,-3.72 0.41,-1.29 0.88,-2.6 1.4,-3.89 0.52,-1.29 1,-2.34 1.56,-3.53 0.56,-1.19 1.24,-2.35 1.94,-3.49 0.7,-1.14 1.41,-2.23 2.21,-3.26 0.8,-1.03 1.51,-2 2.27,-2.83 a 5.42,5.42 0 0 1 1.16,0.13 8,8 0 0 1 1.21,0.34 7.7,7.7 0 0 1 1.08,0.51 4.51,4.51 0 0 1 0.79,0.6 56.93,56.93 0 0 0 -4.54,5.12 31.38,31.38 0 0 0 -3.19,4.86 c -0.43,0.83 -0.82,1.61 -1.16,2.34 -0.34,0.73 -0.67,1.44 -1,2.16 -0.33,0.72 -0.56,1.43 -0.79,2.14 -0.23,0.71 -0.45,1.47 -0.66,2.26 q 6.47,-8.09 9.58,-8.08 a 4,4 0 0 1 1.89,0.56 6.24,6.24 0 0 1 1.78,1.52 25.47,25.47 0 0 0 -2.15,2.7 q -1.11,1.59 -2,3.18 a 28.82,28.82 0 0 0 -1.51,3 5.89,5.89 0 0 0 -0.59,2 0.78,0.78 0 0 0 0.1,0.45 0.65,0.65 0 0 0 0.44,0.11 2,2 0 0 0 0.81,-0.13 1.31,1.31 0 0 1 0.37,-0.13 1.78,1.78 0 0 1 0.2,0.36 0.61,0.61 0 0 1 0,0.17 c 0,0.08 -0.13,0.21 -0.4,0.37 a 8.43,8.43 0 0 1 -1,0.5 c -0.37,0.16 -0.73,0.31 -1.09,0.44 a 2.43,2.43 0 0 1 -0.81,0.2 1.4,1.4 0 0 1 -0.67,-0.18 2,2 0 0 1 -0.59,-0.48 2.33,2.33 0 0 1 -0.4,-0.66 1.93,1.93 0 0 1 -0.15,-0.75 5.73,5.73 0 0 1 0.28,-1.47 c 0.19,-0.65 0.45,-1.41 0.79,-2.27 0.34,-0.86 0.74,-1.82 1.21,-2.85 0.47,-1.03 1,-2.09 1.51,-3.17 a 0.12,0.12 0 0 0 -0.13,-0.13 1.73,1.73 0 0 0 -0.52,0.26 l -0.79,0.53 a 19.18,19.18 0 0 0 -2.44,2.19 34.57,34.57 0 0 0 -2.39,2.85 38.08,38.08 0 0 0 -2.18,3.28 30,30 0 0 0 -1.75,3.45 1.29,1.29 0 0 1 -0.3,0.43 0.52,0.52 0 0 1 -0.33,0.19 c -0.07,0 -0.17,-0.07 -0.29,-0.23 a 3,3 0 0 1 -0.34,-0.57 c -0.1,-0.23 -0.19,-0.47 -0.28,-0.71 A 1.85,1.85 0 0 1 66.89,41.5 Z"
           id="path1006" />
        <path
           class="cls-1"
           d="m 96.34,28.42 a 11,11 0 0 1 -0.74,3.51 7.62,7.62 0 0 1 -1.73,2.57 12.16,12.16 0 0 1 -2.74,2 29.14,29.14 0 0 1 -3.76,1.72 c 0,0.13 0,0.27 0,0.41 0,0.14 0,0.29 0,0.44 a 5.42,5.42 0 0 0 0.07,0.89 3,3 0 0 0 0.24,0.86 1.53,1.53 0 0 0 0.47,0.64 1.13,1.13 0 0 0 0.77,0.25 4.19,4.19 0 0 0 1.78,-0.4 8.67,8.67 0 0 0 1.66,-1 12.7,12.7 0 0 0 1.48,-1.25 c 0.46,-0.45 0.87,-0.86 1.23,-1.24 0.22,0.2 0.41,0.39 0.57,0.56 a 15.79,15.79 0 0 1 -3.31,3.28 9.66,9.66 0 0 1 -3.41,1.67 5.55,5.55 0 0 1 -3.61,-1.67 4.76,4.76 0 0 1 -1.31,-3.35 10.33,10.33 0 0 1 0.39,-2.76 13,13 0 0 1 1.07,-2.7 15.74,15.74 0 0 1 1.62,-2.45 12.58,12.58 0 0 1 2,-2 9.61,9.61 0 0 1 2.14,-1.4 5.5,5.5 0 0 1 2.23,-0.5 4.57,4.57 0 0 1 2.89,1.92 z M 94,29.51 a 5.18,5.18 0 0 0 -1.88,0.72 7.91,7.91 0 0 0 -1.83,1.59 12.2,12.2 0 0 0 -1.57,2.3 A 12.7,12.7 0 0 0 87.64,37 15,15 0 0 0 92.11,33.76 6.74,6.74 0 0 0 94,29.51 Z"
           id="path1008" />
        <path
           class="cls-1"
           d="m 97.08,41.4 c 0.11,-0.63 0.31,-1.47 0.59,-2.52 0.28,-1.05 0.61,-2.15 1,-3.33 0.39,-1.18 0.78,-2.35 1.21,-3.54 0.43,-1.19 0.84,-2.25 1.24,-3.19 a 15.18,15.18 0 0 1 0.78,-1.6 4.2,4.2 0 0 1 0.74,-1 5.23,5.23 0 0 1 1,0.23 8.33,8.33 0 0 1 1,0.39 q 0.47,0.24 0.84,0.48 a 3.75,3.75 0 0 1 0.57,0.48 11.8,11.8 0 0 0 -1.6,2.4 26,26 0 0 0 -1.45,3.49 q 1.81,-1.57 3.21,-3 a 23.38,23.38 0 0 0 2.6,-3.23 1.16,1.16 0 0 1 0.71,-0.16 2.85,2.85 0 0 1 0.91,0.15 1.07,1.07 0 0 1 0.6,0.41 8.77,8.77 0 0 0 -0.6,3.13 4.28,4.28 0 0 0 0.43,2.17 2.37,2.37 0 0 1 -0.45,0.76 10.28,10.28 0 0 1 -0.92,1.06 5.52,5.52 0 0 1 -2.66,-3 24.31,24.31 0 0 0 -2.69,2.02 11.35,11.35 0 0 0 -1.9,2.31 13.49,13.49 0 0 0 -1.34,2.91 37.58,37.58 0 0 0 -1.06,3.92 2.59,2.59 0 0 1 -0.73,-0.21 5.73,5.73 0 0 1 -0.84,-0.45 4.88,4.88 0 0 1 -0.75,-0.56 1.42,1.42 0 0 1 -0.44,-0.52 z"
           id="path1010" />
        <path
           class="cls-2"
           d="m 125.37,0 a 2.94,2.94 0 0 1 2.31,1 3,3 0 0 1 0.87,2.28 l 0.07,7.61 a 2.84,2.84 0 0 1 -0.87,2.19 3,3 0 0 1 -2.22,0.86 3.25,3.25 0 0 1 -2.27,-0.9 2.89,2.89 0 0 1 -1,-2.2 L 122.19,3.22 A 3.14,3.14 0 0 1 123.1,0.92 2.8,2.8 0 0 1 125.37,0 Z m 26.42,11.11 A 2.9,2.9 0 0 1 154,12 a 3.08,3.08 0 0 1 1,2.28 2.85,2.85 0 0 1 -1,2.22 l -5.38,5.23 a 2.8,2.8 0 0 1 -2.22,0.93 3.15,3.15 0 0 1 -2.27,-0.9 3,3 0 0 1 -0.91,-2.2 3.12,3.12 0 0 1 0.87,-2.19 l 5.41,-5.41 a 2.9,2.9 0 0 1 2.29,-0.85 z m -26.24,9.29 a 18.63,18.63 0 0 0 -8.63,1.86 0.8,0.8 0 0 0 -0.52,0.87 l 0.06,6.12 c 0,0.26 0.08,0.44 0.23,0.51 0.15,0.07 0.37,0 0.59,-0.25 a 12.73,12.73 0 0 1 8.33,-2.85 13.11,13.11 0 0 1 9.46,4 13,13 0 0 1 4,9.37 12.93,12.93 0 0 1 -13.21,13.06 13,13 0 0 1 -8.38,-3 1.06,1.06 0 0 0 -0.45,-0.22 0.19,0.19 0 0 0 -0.26,0.11 0.53,0.53 0 0 0 -0.1,0.36 v 6.23 a 0.88,0.88 0 0 0 0.53,0.77 18.45,18.45 0 0 0 8.67,2.13 19.48,19.48 0 0 0 17.13,-9.63 18.55,18.55 0 0 0 2.59,-9.75 19,19 0 0 0 -2.76,-9.8 20.34,20.34 0 0 0 -7.3,-7.21 19.75,19.75 0 0 0 -9.98,-2.68 z m 29.59,16.6 7.76,0.07 a 3.29,3.29 0 0 1 2.31,0.94 3,3 0 0 1 1,2.24 3.11,3.11 0 0 1 -0.94,2.26 3.14,3.14 0 0 1 -2.3,0.93 l -7.76,-0.07 a 3.28,3.28 0 0 1 -2.31,-1 3.09,3.09 0 0 1 -1,-2.28 3,3 0 0 1 0.94,-2.22 3.22,3.22 0 0 1 2.3,-0.87 z m -8.4,20.51 a 3.08,3.08 0 0 1 2.24,0.89 l 5.47,5.33 a 3.06,3.06 0 0 1 1,2.27 2.9,2.9 0 0 1 -0.91,2.27 3,3 0 0 1 -2.26,0.89 3.15,3.15 0 0 1 -2.27,-0.86 l -5.5,-5.58 a 3,3 0 0 1 -0.84,-2.17 2.83,2.83 0 0 1 0.8,-2.22 3,3 0 0 1 2.27,-0.8 z M 126,65.87 a 3,3 0 0 1 2.31,0.9 2.87,2.87 0 0 1 0.88,2.17 l 0.07,7.65 a 3.19,3.19 0 0 1 -0.88,2.27 2.9,2.9 0 0 1 -2.21,0.93 3.28,3.28 0 0 1 -3.23,-3.25 l -0.06,-7.65 a 2.79,2.79 0 0 1 0.9,-2.16 3,3 0 0 1 2.22,-0.86 z"
           id="path1012" />
        <path
           class="cls-1"
           d="m 59.35,58.89 a 2.35,2.35 0 0 1 -1.67,-0.9 3.14,3.14 0 0 1 -0.62,-2 5.33,5.33 0 0 1 0.22,-1.49 6.77,6.77 0 0 1 0.62,-1.5 8.46,8.46 0 0 1 1,-1.37 6.58,6.58 0 0 1 1.19,-1.12 3.32,3.32 0 0 1 1.9,-0.74 3.13,3.13 0 0 1 1.11,1.23 h 0.34 c 0.65,0 1,0.57 1,1.69 a 6.21,6.21 0 0 1 -0.44,2.16 6.73,6.73 0 0 1 -1,1.85 6.46,6.46 0 0 1 -1.6,1.39 6.25,6.25 0 0 1 -2.05,0.8 z m 0.94,-5.67 a 7.78,7.78 0 0 0 -0.59,0.9 8,8 0 0 0 -0.47,1 6.75,6.75 0 0 0 -0.32,1 3.71,3.71 0 0 0 -0.11,0.82 2.29,2.29 0 0 0 0.15,0.82 c 0.1,0.27 0.21,0.42 0.33,0.46 a 4.26,4.26 0 0 0 1.52,-0.68 4.69,4.69 0 0 0 1.2,-1.3 6,6 0 0 0 0.79,-1.67 6.86,6.86 0 0 0 0.29,-2 3.6,3.6 0 0 0 -0.06,-0.74 1.15,1.15 0 0 0 -0.18,-0.47 4,4 0 0 0 -1.44,0.76 7.15,7.15 0 0 0 -1.11,1.1 z"
           id="path1014" />
        <path
           class="cls-1"
           d="m 64.85,57.9 c 0.06,-0.35 0.17,-0.81 0.32,-1.38 0.15,-0.57 0.34,-1.17 0.55,-1.82 0.21,-0.65 0.42,-1.28 0.66,-1.93 0.24,-0.65 0.46,-1.23 0.68,-1.75 0.22,-0.52 0.3,-0.66 0.42,-0.88 a 2.48,2.48 0 0 1 0.41,-0.53 4.07,4.07 0 0 1 0.53,0.13 3.49,3.49 0 0 1 0.58,0.26 3.28,3.28 0 0 1 0.46,0.26 1.21,1.21 0 0 1 0.31,0.26 6.49,6.49 0 0 0 -0.87,1.31 13.82,13.82 0 0 0 -0.76,1.9 c 0.66,-0.58 1.24,-1.13 1.75,-1.66 a 13.31,13.31 0 0 0 1.43,-1.77 0.6,0.6 0 0 1 0.38,-0.09 1.64,1.64 0 0 1 0.5,0.08 0.61,0.61 0 0 1 0.33,0.23 4.8,4.8 0 0 0 -0.33,1.71 2.33,2.33 0 0 0 0.24,1.19 1.37,1.37 0 0 1 -0.25,0.41 4.63,4.63 0 0 1 -0.5,0.58 3,3 0 0 1 -0.89,-0.69 3.3,3.3 0 0 1 -0.57,-1 15.43,15.43 0 0 0 -1.47,1.16 6.35,6.35 0 0 0 -1,1.27 7.79,7.79 0 0 0 -0.73,1.59 20.77,20.77 0 0 0 -0.58,2.15 2.4,2.4 0 0 1 -0.4,-0.12 L 65.59,58.53 A 3.38,3.38 0 0 1 65.18,58.22 0.9,0.9 0 0 1 64.85,57.9 Z"
           id="path1016" />
        <path
           class="cls-1"
           d="m 77,68.66 a 6.74,6.74 0 0 1 -1.88,-0.78 1.21,1.21 0 0 1 -0.49,-1 8.6,8.6 0 0 1 0.34,-2 c 0.23,-0.87 0.53,-1.84 0.89,-2.91 0.36,-1.07 0.79,-2.2 1.27,-3.37 0.48,-1.17 1,-2.29 1.44,-3.36 0.44,-1.07 1,-2.06 1.44,-3 a 16.84,16.84 0 0 1 1.23,-2.07 l -0.17,-1 a 3.93,3.93 0 0 1 1,0.16 c 0.41,0.12 0.82,0.25 1.24,0.41 a 10.48,10.48 0 0 1 1.1,0.5 c 0.32,0.16 0.49,0.3 0.53,0.42 a 11.65,11.65 0 0 0 -0.2,1.74 c 0,0.78 -0.07,1.6 -0.07,2.49 0,1.74 0.07,3.45 0.21,5.12 a 25.49,25.49 0 0 0 1,5.11 c 0.27,-1.28 0.55,-2.56 0.85,-3.83 0.3,-1.27 0.62,-2.49 0.94,-3.65 0.32,-1.16 0.66,-2.24 1,-3.24 0.34,-1 0.65,-1.86 0.95,-2.6 A 12.31,12.31 0 0 1 90.33,50 c 0.26,-0.42 0.5,-0.65 0.71,-0.68 a 2.29,2.29 0 0 1 0.59,0.2 4,4 0 0 1 0.62,0.38 4,4 0 0 1 0.54,0.48 2.94,2.94 0 0 1 0.39,0.52 3.71,3.71 0 0 0 -1.56,1.47 17.62,17.62 0 0 0 -1.47,2.8 37.77,37.77 0 0 0 -1.3,3.57 q -0.6,1.92 -1,3.78 c -0.31,1.24 -0.54,2.39 -0.71,3.45 a 19.39,19.39 0 0 0 -0.29,2.55 0.09,0.09 0 0 0 0,0.07 h -0.16 -0.16 a 6.77,6.77 0 0 1 -2,-0.27 1.89,1.89 0 0 1 -1.14,-0.78 c -0.34,-1.35 -0.63,-2.65 -0.86,-3.9 -0.23,-1.25 -0.42,-2.5 -0.57,-3.75 -0.15,-1.25 -0.28,-2.51 -0.37,-3.78 -0.09,-1.27 -0.16,-2.61 -0.21,-4 a 13.44,13.44 0 0 0 -1,1.89 c -0.34,0.77 -0.68,1.63 -1,2.56 -0.32,0.93 -0.65,1.9 -0.95,2.93 -0.3,1.03 -0.57,2 -0.79,3 -0.22,1 -0.41,1.9 -0.54,2.78 a 14.35,14.35 0 0 0 -0.2,2.27 c 0,0.33 0,0.57 0,0.72 a 1.68,1.68 0 0 0 0.1,0.4 z"
           id="path1018" />
        <path
           class="cls-1"
           d="m 93.69,67.67 a 3.1,3.1 0 0 1 -2.23,-1.2 4.23,4.23 0 0 1 -0.83,-2.69 7.56,7.56 0 0 1 0.29,-2 9.89,9.89 0 0 1 0.84,-2 11.38,11.38 0 0 1 1.24,-1.84 9.26,9.26 0 0 1 1.59,-1.49 4.33,4.33 0 0 1 2.53,-1 4.27,4.27 0 0 1 1.54,1.7 h 0.44 c 0.87,0 1.3,0.75 1.3,2.26 a 8.1,8.1 0 0 1 -0.5,2.87 8.57,8.57 0 0 1 -1.4,2.46 7.93,7.93 0 0 1 -2.1,1.86 8.44,8.44 0 0 1 -2.71,1.07 z m 1.25,-7.57 a 10.32,10.32 0 0 0 -0.78,1.2 11.27,11.27 0 0 0 -0.64,1.31 9.52,9.52 0 0 0 -0.42,1.28 5.16,5.16 0 0 0 -0.1,1.11 3.2,3.2 0 0 0 0.19,1.11 c 0.13,0.35 0.28,0.55 0.44,0.6 a 5.45,5.45 0 0 0 2,-0.9 6.58,6.58 0 0 0 1.59,-1.65 8,8 0 0 0 1.05,-2.23 9,9 0 0 0 0.38,-2.67 5.17,5.17 0 0 0 -0.07,-1 1.91,1.91 0 0 0 -0.24,-0.62 5.33,5.33 0 0 0 -1.93,1 10.07,10.07 0 0 0 -1.47,1.46 z"
           id="path1020" />
        <path
           class="cls-1"
           d="m 102.81,57.63 a 1.67,1.67 0 0 1 -0.22,-0.61 4.55,4.55 0 0 1 -0.1,-0.81 7.64,7.64 0 0 0 1.23,0.1 h 1.08 c 0.24,-0.48 0.51,-1 0.79,-1.42 0.28,-0.42 0.57,-0.89 0.84,-1.28 a 10.5,10.5 0 0 1 0.76,-1 3,3 0 0 1 0.55,-0.52 2.79,2.79 0 0 1 0.62,0.09 6,6 0 0 1 0.78,0.21 c 0.26,0.09 0.49,0.18 0.71,0.28 a 1.15,1.15 0 0 1 0.44,0.29 q -0.74,0.9 -1.26,1.68 c -0.36,0.52 -0.74,1.11 -1.14,1.78 h 1 a 7.23,7.23 0 0 0 1,-0.08 1.11,1.11 0 0 1 0.27,0.68 8.41,8.41 0 0 1 -2.92,0.45 c -0.41,0.78 -0.77,1.54 -1.09,2.3 -0.32,0.76 -0.59,1.5 -0.81,2.21 -0.22,0.71 -0.39,1.37 -0.52,2 a 9,9 0 0 0 -0.18,1.68 c 0,0.71 0.27,1.1 0.81,1.18 a 5.44,5.44 0 0 0 1.4,-0.36 4.46,4.46 0 0 0 1.17,-0.67 0.93,0.93 0 0 1 0.17,0.36 2.11,2.11 0 0 1 -0.5,0.5 c -0.24,0.19 -0.49,0.38 -0.77,0.56 a 7,7 0 0 1 -0.81,0.47 1.82,1.82 0 0 1 -0.59,0.21 3.31,3.31 0 0 1 -1.22,-0.24 5.21,5.21 0 0 1 -1.12,-0.6 3.68,3.68 0 0 1 -0.82,-0.8 1.54,1.54 0 0 1 -0.32,-0.88 8.13,8.13 0 0 1 0.16,-1.46 c 0.11,-0.58 0.26,-1.22 0.45,-1.91 0.19,-0.69 0.43,-1.41 0.69,-2.16 0.26,-0.75 0.55,-1.5 0.86,-2.24 z"
           id="path1022" />
      </g>
    </g>
  </g>
</svg>
