<svg width="2142.77" height="976.12" xmlns="http://www.w3.org/2000/svg">
 <defs>
  <clipPath transform="translate(76.18 -311.07)" id="clip-path">
   <rect x="-76" y="-1" id="svg_1" fill="none" height="1080" width="1920" class="cls-1"/>
  </clipPath>
  <clipPath transform="translate(76.18 -311.07)" id="clip-path-2">
   <rect id="svg_2" fill="none" height="1280.03" width="1920.04" y="-22" x="-75.38" class="cls-1"/>
  </clipPath>
 </defs>
 <g>
  <title>Layer 1</title>
  <g data-name="Layer 2" id="Layer_2">
   <g data-name="Layer 1" id="Layer_1-2">
    <g id="svg_4" clip-path="url(#clip-path)" class="cls-3">
     <g id="svg_5" opacity="0.2" class="cls-4">
      <g id="svg_6" clip-path="url(#clip-path-2)" class="cls-5"/>
     </g>
    </g>
   </g>
  </g>
  <path id="svg_7" mix-blend-mode="multiply" opacity="0.77" fill="#e2e2e2" d="m-6.19823,516.12279l1286.87996,-0.75816l-348.30291,-266.50418a39.9528,46.82203 0 0 0 -33.58152,-5.51388c-32.34647,11.6251 -89.04102,40.61891 -89.04102,40.61891c-13.09542,3.8712 -95.75536,-20.25202 -95.75536,-20.25202c-11.11542,-5.06588 -49.55872,-43.37585 -74.02442,-67.63692c-5.27346,-5.2267 -12.53671,-6.61666 -18.33947,-2.22853l-60.4781,52.20955a55.979,65.60368 0 0 1 -38.38448,-5.74362l-96.05923,-53.82925c-22.30927,-13.58942 -32.27786,-10.98181 -56.16524,-1.75755l-58.67454,23.84753c-5.75375,2.22853 -32.40529,-11.55617 -60.22325,-26.42067c-9.29226,-4.98547 -43.77556,-48.24645 -70.69175,-83.68461a18.77076,21.99808 0 0 0 -21.81917,-5.37603c-21.25065,11.29197 -46.73575,27.10991 -46.73575,27.10991a12.89938,15.11722 0 0 1 -14.70294,1.41293l-100.96021,-68.92349l-2.94059,134.53866l0,328.89143z" class="cls-6"/>
  <path transform="rotate(0.0207256, 1556.3, 349.316)" id="svg_8" mix-blend-mode="multiply" opacity="0.77" fill="#e2e2e2" d="m2050.04844,143.77476a70.54689,83.95446 0 0 1 -35.92731,-2.5845l-103.06478,-96.57125a37.04821,44.08929 0 0 0 -28.66478,2.77903l-142.6467,124.61164a66.61205,79.27179 0 0 1 -45.72354,6.94757l-67.93145,-18.66118a82.30471,97.94686 0 0 0 -48.33898,4.16854l-114.70584,53.07945a77.78606,92.56944 0 0 1 -47.08964,3.52937l-71.14237,-56.81724a15.76271,18.75844 0 0 0 -17.60753,0c-29.8791,23.98302 -69.33258,63.01447 -84.23126,74.29733l-278.59133,154.02766l327.45574,254.42007l856.38228,9.21248l0,-574.07784l-98.1725,61.63886z" class="cls-6"/>
  <path id="svg_9" opacity="0.8" fill="#b7b7b7" d="m-39.11851,1004.90376l5.74065,-636.80684l707.00794,23.84111l90.93097,-34.96358a291.607,264.41778 0 0 1 113.83751,-20.98425l22.06562,0c13.71253,-3.44654 47.7752,-33.65206 70.26688,-48.19057a10.09098,9.15011 0 0 1 12.07554,0.3355l111.39325,80.51078a63.75259,57.80835 0 0 0 62.17167,-3.17204l105.03593,-60.61438c20.60803,-11.88497 45.09548,-12.20014 69.38112,-9.87195c20.32773,1.96219 64.33563,12.37298 85.38093,-1.50468l97.83769,-72.14352a20.56318,18.64589 0 0 1 23.22047,-0.96584l99.96801,56.12066c11.2122,4.66656 23.17563,7.96059 34.49995,1.89102l118.513,-55.58182a80.60453,73.08903 0 0 1 59.85074,-5.18506l49.03097,9.66861a45.88034,41.60249 0 0 0 40.74515,-10.00412l56.4086,-46.94005a22.65986,20.54708 0 0 1 29.36476,-3.23304l79.46089,48.2719l57.18224,-0.87434l-12.15403,802.52546l-2189.21645,-12.12898z" class="cls-7"/>
  <path id="svg_10" fill="#999" d="m-46.85843,255.43204l160.6849,65.52353a147.30198,136.18962 0 0 0 73.03859,11.01236l32.03585,-2.7427a157.76336,145.8618 0 0 0 81.07284,-29.25547c7.19149,-5.05945 14.34927,-10.2124 21.40593,-14.87707a13.25931,12.25904 0 0 1 18.19223,2.4622l75.28593,67.61172c11.97833,9.42284 56.36332,34.85515 70.37549,35.32266a97.19751,89.865 0 0 0 14.68638,-0.63373l70.79125,-7.63593c44.58725,-4.65428 74.21845,-2.61803 80.54471,2.65959c29.72109,24.81936 51.94729,22.07666 73.8364,30.12815l181.4391,71.43488a73.48806,67.94417 0 0 0 43.28379,3.17904l64.04923,-43.00014a13.34921,12.34215 0 0 1 15.37181,-0.24934c16.28199,10.27474 29.11431,20.9962 41.02521,25.40115l107.20942,44.20527a73.52177,67.97534 0 0 0 42.05899,3.46993l217.00327,-30.81382c26.72089,-3.43876 98.77065,-22.15977 129.45809,-33.68119l85.33155,-61.18092c4.87673,-4.83089 32.58645,-24.81936 63.29637,-31.91506c22.47341,-5.19451 34.40679,-6.03602 58.73426,-10.47213a67.97084,62.84316 0 0 0 32.49655,-15.1368c27.41756,-23.00128 88.89358,-74.69703 113.03003,-96.03607a18.46191,17.06915 0 0 1 20.01257,-3.36604l43.47482,17.11071a78.25242,72.34911 0 0 0 68.73493,-3.38682l133.61568,-68.84801l3.58451,-1.84925l0,908.00007l-2227.80064,0l-7.36004,-832.44076z" class="cls-8"/>
  <path id="svg_11" fill="#777" d="m578.64198,646.32282l215.33876,-53.17a36.26604,32.29 0 0 1 24.81006,1.75l33.35712,13.57a54.52823,48.55 0 0 0 43.7012,0.65l93.01808,-31.07l65.96175,-33.34c5.93016,-2.93 12.15233,-2.08 19.34039,0.91c0,0 49.64259,22.91 73.55414,31.8a23.68693,21.09 0 0 0 18.50927,-0.16l11.23135,-4.33c11.54583,-4 15.13987,-0.32 25.98935,5l121.29863,59.69a48.13759,42.86 0 0 0 48.47453,-1l68.71343,-37.57a35.5697,31.67 0 0 1 34.17701,-1.5l258.4784,111.88l448.54661,-12l-9.58035,358.41l-2212.15008,10.33l-3.82989,-380.6l621.06022,-39.25z" class="cls-9"/>
  <path id="svg_12" fill="#5b5b5b" d="m2152.37192,364.71285l-100.04149,43.20592a55.75919,51.3692 0 0 1 -43.75911,1.39473l-40.68673,-14.4806a30.62358,28.21255 0 0 0 -34.74235,8.46069c-45.56246,37.89363 -49.38067,91.33442 -121.13625,100.56426a32.64957,30.07903 0 0 0 -16.6977,6.54293c-33.80728,26.34607 -39.58468,74.38228 -90.88002,82.25841l-68.5051,-0.96401a47.94467,44.16993 0 0 0 -34.50858,11.75267c-50.8612,43.5546 -176.69507,139.36037 -176.69507,139.36037c-25.169,16.62397 -60.79076,28.00745 -86.43843,32.37624c0,0 -207.05149,37.63725 -267.88678,39.38066l-287.80157,-128.66401a65.67762,60.50675 0 0 0 -37.69228,-4.82003l-55.42524,9.22984a51.09497,47.0722 0 0 1 -34.64216,-6.3891s-86.03769,-63.35774 -123.88581,-96.41084a27.8295,25.63845 0 0 0 -22.9649,-6.83008c-24.38978,3.07661 -55.03562,7.85562 -72.8465,10.19385a29.14305,26.84859 0 0 1 -23.15415,-6.25578l-157.82667,-125.50535a24.28959,22.37724 0 0 0 -28.00761,-2.46129l-46.96507,24.88981a60.99114,56.18923 0 0 1 -30.2451,7.48643s-25.60314,6.95315 -54.08942,3.45606c-28.94268,-3.55862 -93.09525,141.77038 -165.29611,141.77038l0,453.28783l2219.02428,0l0,-451.8008l3.79594,0.26664l0,-271.29584z" class="cls-10"/>
  <path id="svg_13" fill="#333" d="m-14.75141,728.07065c6.91615,-2.53302 175.70501,-127.21387 216.90431,-157.6101a12.90877,14.16239 0 0 1 16.54129,1.94761l33.98557,38.94095a50.76287,55.69265 0 0 0 45.75534,16.29013l41.82524,-8.34208a38.8905,42.66731 0 0 1 32.0154,9.34403l117.2256,108.30065a60.71638,66.61278 0 0 0 42.66667,15.54711l100.2636,-6.47327a35.4119,38.85089 0 0 1 18.09075,4.12038l169.00435,93.65417a277.52833,304.4802 0 0 0 130.42169,32.64781l452.41244,-9.32151a134.79303,147.8833 0 0 0 70.39283,-23.32629l136.5785,-96.33354a52.40469,57.49391 0 0 1 33.08258,-8.89371l53.49239,5.33623a54.47748,59.768 0 0 0 29.00882,-5.91038l156.701,-84.71543a38.01828,41.71039 0 0 1 22.72888,-3.78264l14.67372,2.54428a68.09428,74.70719 0 0 0 43.91856,-8.63478l218.45377,-134.31758l0,537.00012l-2198.7702,0l2.6269,-318.01215z" class="cls-11"/>
 </g>
</svg>