<svg xmlns="http://www.w3.org/2000/svg" xmlns:xlink="http://www.w3.org/1999/xlink" viewBox="0 0 2142.77 976.12"><defs><style>.cls-1{fill:none;}.cls-2{isolation:isolate;}.cls-3{clip-path:url(#clip-path);}.cls-4{opacity:0.2;}.cls-5{clip-path:url(#clip-path-2);}.cls-6{fill:#e2e2e2;opacity:0.77;mix-blend-mode:multiply;}.cls-7{fill:#b7b7b7;opacity:0.8;}.cls-8{fill:#999;}.cls-9{fill:#777;}.cls-10{fill:#5b5b5b;}.cls-11{fill:#333;}</style><clipPath id="clip-path" transform="translate(76.18 -311.07)"><rect class="cls-1" width="1920" height="1080"/></clipPath><clipPath id="clip-path-2" transform="translate(76.18 -311.07)"><rect class="cls-1" x="0.62" y="-21" width="1920.04" height="1280.03"/></clipPath></defs><g class="cls-2"><g id="Layer_2" data-name="Layer 2"><g id="Layer_1-2" data-name="Layer 1"><g class="cls-3"><g class="cls-4"><g class="cls-5"><path class="cls-6" d="M-57,735.73l1312.88-.66-355.34-232a40.76,40.76,0,0,0-34.26-4.8c-33,10.12-90.84,35.36-90.84,35.36C762.08,537,677.75,516,677.75,516c-11.34-4.41-50.56-37.76-75.52-58.88-5.38-4.55-12.79-5.76-18.71-1.94l-61.7,45.45a57.11,57.11,0,0,1-39.16-5l-98-46.86c-22.76-11.83-32.93-9.56-57.3-1.53L267.5,468c-5.87,1.94-33.06-10.06-61.44-23-9.48-4.34-44.66-42-72.12-72.85a19.15,19.15,0,0,0-22.26-4.68C90,377.3,64,391.07,64,391.07a13.16,13.16,0,0,1-15,1.23l-103-60-3,117.12Z" transform="translate(76.18 -311.07)"/><path class="cls-6" d="M1922.37,384a60.42,60.42,0,0,1-30.77-1.86l-88.27-69.5a31.73,31.73,0,0,0-24.55,2l-122.17,89.68a57.05,57.05,0,0,1-39.16,5l-58.18-13.43a70.49,70.49,0,0,0-41.4,3l-98.24,38.2a66.62,66.62,0,0,1-40.33,2.54l-60.93-40.89a13.5,13.5,0,0,0-15.08,0c-25.59,17.26-59.38,45.35-72.14,53.47L992.55,563.06,1273,746.16l733.45,6.63V339.64Z" transform="translate(76.18 -311.07)"/><path class="cls-7" d="M-7.92,1266.71-2.8,640.35,627.77,663.8l81.1-34.39A260.08,260.08,0,0,1,810.4,608.77h19.68c12.23-3.39,42.61-33.1,62.67-47.4a9,9,0,0,1,10.77.33l99.35,79.19a56.86,56.86,0,0,0,55.45-3.12L1152,578.15c18.38-11.69,40.22-12,61.88-9.71,18.13,1.93,57.38,12.17,76.15-1.48L1377.29,496a18.34,18.34,0,0,1,20.71-.95l89.16,55.2c10,4.59,20.67,7.83,30.77,1.86l105.7-54.67a71.89,71.89,0,0,1,53.38-5.1l43.73,9.51a40.92,40.92,0,0,0,36.34-9.84l50.31-46.17a20.21,20.21,0,0,1,26.19-3.18l70.87,47.48,51-.86-10.84,789.36Z" transform="translate(76.18 -311.07)"/><path class="cls-8" d="M-32.66,478.21l143,63.07a131.09,131.09,0,0,0,65,10.6l28.51-2.64A140.4,140.4,0,0,0,276,521.08c6.4-4.87,12.77-9.83,19.05-14.32a11.8,11.8,0,0,1,16.19,2.37l67,65.08c10.66,9.07,50.16,33.55,62.63,34a86.5,86.5,0,0,0,13.07-.61l63-7.35c39.68-4.48,66.05-2.52,71.68,2.56,26.45,23.89,46.23,21.25,65.71,29L815.8,700.57a65.4,65.4,0,0,0,38.52,3.06l57-41.39A11.88,11.88,0,0,1,925,662c14.49,9.89,25.91,20.21,36.51,24.45L1056.92,729a65.43,65.43,0,0,0,37.43,3.34l193.12-29.66c23.78-3.31,87.9-21.33,115.21-32.42l75.94-58.89c4.34-4.65,29-23.89,56.33-30.72,20-5,30.62-5.81,52.27-10.08A60.49,60.49,0,0,0,1616.14,556c24.4-22.14,79.11-71.9,100.59-92.44a16.43,16.43,0,0,1,17.81-3.24l38.69,16.47a69.64,69.64,0,0,0,61.17-3.26l118.91-66.27,3.19-1.78v874H-26.11Z" transform="translate(76.18 -311.07)"/><path class="cls-9" d="M517.75,863.93l191.73-53.17a32.29,32.29,0,0,1,22.09,1.75l29.7,13.57a48.55,48.55,0,0,0,38.91.65L883,795.66l58.73-33.34c5.28-2.93,10.82-2.08,17.22.91,0,0,44.2,22.91,65.49,31.8a21.09,21.09,0,0,0,16.48-.16l10-4.33c10.28-4,13.48-.32,23.14,5l108,59.69a42.86,42.86,0,0,0,43.16-1l61.18-37.57a31.67,31.67,0,0,1,30.43-1.5l230.14,111.88,399.37-12-8.53,358.41L-31.81,1283.78l-3.41-380.6Z" transform="translate(76.18 -311.07)"/><path class="cls-10" d="M1973.57,582.32l-89.87,42.13a50.09,50.09,0,0,1-39.31,1.36l-36.55-14.12a27.51,27.51,0,0,0-31.21,8.25C1735.7,656.89,1732.27,709,1667.81,718a29.33,29.33,0,0,0-15,6.38c-30.37,25.69-35.56,72.53-81.64,80.21l-61.54-.94a43.07,43.07,0,0,0-31,11.46C1432.94,857.58,1319.9,951,1319.9,951c-22.61,16.21-54.61,27.31-77.65,31.57,0,0-186,36.7-240.65,38.4L743.06,895.51a59,59,0,0,0-33.86-4.7l-49.79,9a45.9,45.9,0,0,1-31.12-6.23S551,831.8,517,799.57a25,25,0,0,0-20.63-6.66c-21.91,3-49.44,7.66-65.44,9.94a26.18,26.18,0,0,1-20.8-6.1L268.35,674.37a21.82,21.82,0,0,0-25.16-2.4L201,696.24a54.79,54.79,0,0,1-27.17,7.3s-23,6.78-48.59,3.37c-26-3.47-83.63,138.24-148.49,138.24v442H1970.16V846.6l3.41.26Z" transform="translate(76.18 -311.07)"/><path class="cls-11" d="M-73.62,993.21c6.74-2.25,171.23-113,211.38-140a12.58,12.58,0,0,1,16.12,1.73L187,889.53A49.47,49.47,0,0,0,231.59,904l40.76-7.41a37.9,37.9,0,0,1,31.2,8.3l114.24,96.2a59.17,59.17,0,0,0,41.58,13.81l97.71-5.75a34.51,34.51,0,0,1,17.63,3.66L739.41,1096a270.46,270.46,0,0,0,127.1,29l440.89-8.28A131.36,131.36,0,0,0,1376,1096l133.1-85.57a51.07,51.07,0,0,1,32.24-7.9l52.13,4.74a53.09,53.09,0,0,0,28.27-5.25l152.71-75.25a37.05,37.05,0,0,1,22.15-3.36l14.3,2.26A66.36,66.36,0,0,0,1853.7,918l212.89-119.31v477H-76.18Z" transform="translate(76.18 -311.07)"/></g></g></g></g></g></g></svg>