<svg xmlns="http://www.w3.org/2000/svg" viewBox="0 0 272.1 87"><defs><style>.cls-1{fill:#fff;opacity:0.2;}</style></defs><g id="Layer_2" data-name="Layer 2"><g id="Layer_1-2" data-name="Layer 1"><path class="cls-1" d="M0,87H271a19.3,19.3,0,0,0,1.14-6.5c0-18.24-26.32-33.29-60.32-35.46a24.46,24.46,0,0,0,.18-3c0-11.47-7.38-20.76-16.49-20.76a14.14,14.14,0,0,0-9.05,3.41C177.21,9.93,160.17,0,140.67,0,118.51,0,99.52,12.83,91.6,31.05h-.16c-33.71,0-61,19.23-61,43a30.67,30.67,0,0,0,.77,6.85C14.6,81.71,2.16,84.1,0,87Z"/></g></g></svg>