<svg xmlns="http://www.w3.org/2000/svg" viewBox="0 0 166.19 79.79"><defs><style>.cls-1{fill:#fff;}.cls-2{fill:#ffe168;}</style></defs><g id="Layer_2" data-name="Layer 2"><g id="Layer_1-2" data-name="Layer 1"><path class="cls-1" d="M.34,43.08c-.12-.9-.2-1.88-.26-2.95S0,38.08,0,37.15q0-2.2.15-4.23c.1-1.35.23-2.77.37-4.25s.31-3.1.49-4.84.33-3.77.47-6A4.62,4.62,0,0,1,2.74,18c.55.16,1.1.35,1.66.57a13.06,13.06,0,0,1,1.48.68c.43.23.68.42.74.57a17.94,17.94,0,0,0-1,3.38c-.31,1.4-.56,2.92-.76,4.57s-.36,3.33-.47,5.07-.17,3.36-.17,4.88c0,.7,0,1.39,0,2.07s0,1.31.1,1.88A23.42,23.42,0,0,0,6,38.78q.92-1.89,1.91-4.23c.66-1.56,1.33-3.19,2-4.89s1.27-3.33,1.83-4.88,1-2.94,1.43-4.18.66-2.18.82-2.82a4.93,4.93,0,0,1,1.29.25,16,16,0,0,1,1.69.57,15.56,15.56,0,0,1,1.46.68c.42.23.66.42.7.57a17.94,17.94,0,0,0-1,3.38c-.3,1.4-.56,2.92-.76,4.57s-.36,3.33-.47,5.07-.17,3.36-.17,4.88c0,.63,0,1.26,0,1.89s0,1.19.08,1.7c.72-1.83,1.47-3.63,2.24-5.42s1.54-3.51,2.3-5.14,1.5-3.17,2.22-4.58,1.38-2.68,2-3.79,1.14-2,1.58-2.75a8.15,8.15,0,0,1,1.05-1.45,4.41,4.41,0,0,1,1.59.54,5.81,5.81,0,0,1,1.47,1.14A12,12,0,0,0,29,22.38q-1.25,1.73-2.56,4c-.87,1.51-1.75,3.13-2.64,4.84s-1.71,3.38-2.47,5-1.44,3.14-2,4.55-1.05,2.53-1.36,3.39a4.26,4.26,0,0,1-1.72.4,8.09,8.09,0,0,1-2-.53,3,3,0,0,1-1.36-1,11.09,11.09,0,0,1-.17-1.23c-.05-.47-.08-.94-.1-1.4s0-.91,0-1.34,0-.79,0-1.1q0-2.94.24-6t.57-6.54c-.52,1.49-1.09,3.1-1.72,4.81s-1.28,3.41-2,5.09S8.22,38.67,7.51,40.2a41,41,0,0,1-2.06,4,4.26,4.26,0,0,1-1.72.4,8,8,0,0,1-2-.53A2.94,2.94,0,0,1,.34,43.08Z"/><path class="cls-1" d="M38.32,28.42a11,11,0,0,1-.74,3.51,7.62,7.62,0,0,1-1.73,2.57,12.16,12.16,0,0,1-2.74,2,29.14,29.14,0,0,1-3.76,1.72c0,.13,0,.27,0,.41s0,.29,0,.44a5.42,5.42,0,0,0,.07.89,3,3,0,0,0,.24.86,1.53,1.53,0,0,0,.47.64,1.13,1.13,0,0,0,.77.25,4.19,4.19,0,0,0,1.78-.4,8.67,8.67,0,0,0,1.66-1,12.7,12.7,0,0,0,1.48-1.25c.46-.45.87-.86,1.23-1.24.22.2.41.39.57.56a15.79,15.79,0,0,1-3.31,3.28,9.66,9.66,0,0,1-3.41,1.67,5.55,5.55,0,0,1-3.61-1.67A4.76,4.76,0,0,1,26,38.31a10.33,10.33,0,0,1,.39-2.76,13,13,0,0,1,1.07-2.7A15.74,15.74,0,0,1,29,30.4a12.58,12.58,0,0,1,2-2A9.61,9.61,0,0,1,33.2,27a5.5,5.5,0,0,1,2.23-.5A4.57,4.57,0,0,1,38.32,28.42ZM36,29.51a5.18,5.18,0,0,0-1.88.72,7.91,7.91,0,0,0-1.83,1.59,12.2,12.2,0,0,0-1.57,2.3A12.7,12.7,0,0,0,29.62,37a15,15,0,0,0,4.47-3.24A6.74,6.74,0,0,0,36,29.51Z"/><path class="cls-1" d="M51.47,28.75a3.09,3.09,0,0,1,.78.12,3.85,3.85,0,0,1,.83.29,3.5,3.5,0,0,1,.62.38c.17.13.25.25.25.36-.45.93-.86,1.85-1.24,2.79s-.71,1.83-1,2.68-.47,1.66-.62,2.41a10.85,10.85,0,0,0-.22,1.94,4.7,4.7,0,0,0,.21,1.53,1.46,1.46,0,0,0,.67.88,3.74,3.74,0,0,1-1,.43,4.65,4.65,0,0,1-1.15.16c-1.21,0-1.81-.81-1.81-2.44A15.26,15.26,0,0,1,49,35.14,18.83,18.83,0,0,1,47.5,38a20.29,20.29,0,0,1-1.78,2.35A10.57,10.57,0,0,1,43.88,42a4.17,4.17,0,0,1-1.69.77,2.38,2.38,0,0,1-2-1.1,4.82,4.82,0,0,1-.77-2.83,10.84,10.84,0,0,1,.8-3.91,17.68,17.68,0,0,1,2.07-3.8A14.32,14.32,0,0,1,45,28.18,4.69,4.69,0,0,1,47.87,27a2.77,2.77,0,0,1,.75.4,6.44,6.44,0,0,1,.81.69,5.27,5.27,0,0,1,.66.8,1.7,1.7,0,0,1,.3.71,6.1,6.1,0,0,0-2.77,1.28A13.41,13.41,0,0,0,45,33.5a14.91,14.91,0,0,0-1.9,3.27A8.39,8.39,0,0,0,42.39,40a.74.74,0,0,0,.47.79,4.67,4.67,0,0,0,2.25-1.63,31.8,31.8,0,0,0,3.09-4.43L49,33.43c.28-.48.57-1,.86-1.52s.57-1.06.86-1.59S51.22,29.26,51.47,28.75Z"/><path class="cls-1" d="M57.08,29.44a2.12,2.12,0,0,1-.3-.84,5.5,5.5,0,0,1-.14-1.1,10.93,10.93,0,0,0,1.68.13H59.8c.34-.65.7-1.3,1.09-1.94s.78-1.22,1.15-1.76a14.62,14.62,0,0,1,1-1.35,3.81,3.81,0,0,1,.76-.72,4,4,0,0,1,.85.12c.35.08.7.18,1.06.3a9.13,9.13,0,0,1,1,.38,1.72,1.72,0,0,1,.6.39c-.67.83-1.25,1.6-1.73,2.31s-1,1.52-1.56,2.44H65.4a11,11,0,0,0,1.39-.1,1,1,0,0,1,.27.41,1.25,1.25,0,0,1,.1.51,11.24,11.24,0,0,1-4,.62c-.56,1.06-1.06,2.11-1.49,3.16s-.81,2.05-1.11,3a27.87,27.87,0,0,0-.71,2.74,12,12,0,0,0-.25,2.32c0,1,.37,1.5,1.11,1.61a7.55,7.55,0,0,0,1.91-.49,6.38,6.38,0,0,0,1.62-.92,1.38,1.38,0,0,1,.23.49,3.16,3.16,0,0,1-.69.69,13,13,0,0,1-1.05.77,12,12,0,0,1-1.11.64,3,3,0,0,1-.81.29,4.57,4.57,0,0,1-1.68-.33,7,7,0,0,1-1.53-.82,4.78,4.78,0,0,1-1.13-1.11A2.08,2.08,0,0,1,56,40.1a12,12,0,0,1,.21-2c.15-.8.36-1.67.63-2.62s.58-1.94.94-3,.75-2.06,1.17-3.07Z"/><path class="cls-1" d="M66.89,41.5a18.35,18.35,0,0,1,.24-2.72c.16-1,.39-2.15.69-3.34s.66-2.43,1.07-3.72.88-2.6,1.4-3.89,1-2.34,1.56-3.53,1.24-2.35,1.94-3.49S75.2,18.58,76,17.55s1.51-2,2.27-2.83a5.42,5.42,0,0,1,1.16.13,8,8,0,0,1,1.21.34,7.7,7.7,0,0,1,1.08.51,4.51,4.51,0,0,1,.79.6,56.93,56.93,0,0,0-4.54,5.12,31.38,31.38,0,0,0-3.19,4.86c-.43.83-.82,1.61-1.16,2.34s-.67,1.44-1,2.16-.56,1.43-.79,2.14-.45,1.47-.66,2.26q6.47-8.09,9.58-8.08a4,4,0,0,1,1.89.56,6.24,6.24,0,0,1,1.78,1.52,25.47,25.47,0,0,0-2.15,2.7q-1.11,1.59-2,3.18a28.82,28.82,0,0,0-1.51,3,5.89,5.89,0,0,0-.59,2,.78.78,0,0,0,.1.45.65.65,0,0,0,.44.11,2,2,0,0,0,.81-.13,1.31,1.31,0,0,1,.37-.13,1.78,1.78,0,0,1,.2.36.61.61,0,0,1,0,.17c0,.08-.13.21-.4.37a8.43,8.43,0,0,1-1,.5c-.37.16-.73.31-1.09.44a2.43,2.43,0,0,1-.81.2,1.4,1.4,0,0,1-.67-.18,2,2,0,0,1-.59-.48,2.33,2.33,0,0,1-.4-.66,1.93,1.93,0,0,1-.15-.75,5.73,5.73,0,0,1,.28-1.47c.19-.65.45-1.41.79-2.27s.74-1.82,1.21-2.85,1-2.09,1.51-3.17a.12.12,0,0,0-.13-.13,1.73,1.73,0,0,0-.52.26l-.79.53a19.18,19.18,0,0,0-2.44,2.19,34.57,34.57,0,0,0-2.39,2.85,38.08,38.08,0,0,0-2.18,3.28A30,30,0,0,0,68.57,43a1.29,1.29,0,0,1-.3.43.52.52,0,0,1-.33.19c-.07,0-.17-.07-.29-.23a3,3,0,0,1-.34-.57c-.1-.23-.19-.47-.28-.71A1.85,1.85,0,0,1,66.89,41.5Z"/><path class="cls-1" d="M96.34,28.42a11,11,0,0,1-.74,3.51,7.62,7.62,0,0,1-1.73,2.57,12.16,12.16,0,0,1-2.74,2,29.14,29.14,0,0,1-3.76,1.72c0,.13,0,.27,0,.41s0,.29,0,.44a5.42,5.42,0,0,0,.07.89,3,3,0,0,0,.24.86,1.53,1.53,0,0,0,.47.64,1.13,1.13,0,0,0,.77.25,4.19,4.19,0,0,0,1.78-.4,8.67,8.67,0,0,0,1.66-1,12.7,12.7,0,0,0,1.48-1.25c.46-.45.87-.86,1.23-1.24.22.2.41.39.57.56a15.79,15.79,0,0,1-3.31,3.28,9.66,9.66,0,0,1-3.41,1.67,5.55,5.55,0,0,1-3.61-1.67A4.76,4.76,0,0,1,84,38.31a10.33,10.33,0,0,1,.39-2.76,13,13,0,0,1,1.07-2.7,15.74,15.74,0,0,1,1.62-2.45,12.58,12.58,0,0,1,2-2A9.61,9.61,0,0,1,91.22,27a5.5,5.5,0,0,1,2.23-.5A4.57,4.57,0,0,1,96.34,28.42ZM94,29.51a5.18,5.18,0,0,0-1.88.72,7.91,7.91,0,0,0-1.83,1.59,12.2,12.2,0,0,0-1.57,2.3A12.7,12.7,0,0,0,87.64,37a15,15,0,0,0,4.47-3.24A6.74,6.74,0,0,0,94,29.51Z"/><path class="cls-1" d="M97.08,41.4c.11-.63.31-1.47.59-2.52s.61-2.15,1-3.33.78-2.35,1.21-3.54.84-2.25,1.24-3.19a15.18,15.18,0,0,1,.78-1.6,4.2,4.2,0,0,1,.74-1,5.23,5.23,0,0,1,1,.23,8.33,8.33,0,0,1,1,.39q.47.24.84.48a3.75,3.75,0,0,1,.57.48,11.8,11.8,0,0,0-1.6,2.4A26,26,0,0,0,103,33.69q1.81-1.57,3.21-3a23.38,23.38,0,0,0,2.6-3.23,1.16,1.16,0,0,1,.71-.16,2.85,2.85,0,0,1,.91.15,1.07,1.07,0,0,1,.6.41,8.77,8.77,0,0,0-.6,3.13,4.28,4.28,0,0,0,.43,2.17,2.37,2.37,0,0,1-.45.76,10.28,10.28,0,0,1-.92,1.06,5.52,5.52,0,0,1-2.66-3A24.31,24.31,0,0,0,104.14,34a11.35,11.35,0,0,0-1.9,2.31,13.49,13.49,0,0,0-1.34,2.91,37.58,37.58,0,0,0-1.06,3.92,2.59,2.59,0,0,1-.73-.21,5.73,5.73,0,0,1-.84-.45,4.88,4.88,0,0,1-.75-.56A1.42,1.42,0,0,1,97.08,41.4Z"/><path class="cls-2" d="M125.37,0a2.94,2.94,0,0,1,2.31,1,3,3,0,0,1,.87,2.28l.07,7.61a2.84,2.84,0,0,1-.87,2.19,3,3,0,0,1-2.22.86,3.25,3.25,0,0,1-2.27-.9,2.89,2.89,0,0,1-1-2.2l-.07-7.62a3.14,3.14,0,0,1,.91-2.3A2.8,2.8,0,0,1,125.37,0Zm26.42,11.11A2.9,2.9,0,0,1,154,12a3.08,3.08,0,0,1,1,2.28,2.85,2.85,0,0,1-1,2.22l-5.38,5.23a2.8,2.8,0,0,1-2.22.93,3.15,3.15,0,0,1-2.27-.9,3,3,0,0,1-.91-2.2,3.12,3.12,0,0,1,.87-2.19l5.41-5.41A2.9,2.9,0,0,1,151.79,11.11ZM125.55,20.4a18.63,18.63,0,0,0-8.63,1.86.8.8,0,0,0-.52.87l.06,6.12c0,.26.08.44.23.51s.37,0,.59-.25a12.73,12.73,0,0,1,8.33-2.85,13.11,13.11,0,0,1,9.46,4,13,13,0,0,1,4,9.37,12.93,12.93,0,0,1-13.21,13.06,13,13,0,0,1-8.38-3,1.06,1.06,0,0,0-.45-.22.19.19,0,0,0-.26.11.53.53,0,0,0-.1.36l0,6.23a.88.88,0,0,0,.53.77,18.45,18.45,0,0,0,8.67,2.13A19.48,19.48,0,0,0,143,49.84a18.55,18.55,0,0,0,2.59-9.75,19,19,0,0,0-2.76-9.8,20.34,20.34,0,0,0-7.3-7.21A19.75,19.75,0,0,0,125.55,20.4ZM155.14,37l7.76.07a3.29,3.29,0,0,1,2.31.94,3,3,0,0,1,1,2.24,3.11,3.11,0,0,1-.94,2.26,3.14,3.14,0,0,1-2.3.93l-7.76-.07a3.28,3.28,0,0,1-2.31-1,3.09,3.09,0,0,1-1-2.28,3,3,0,0,1,.94-2.22A3.22,3.22,0,0,1,155.14,37Zm-8.4,20.51a3.08,3.08,0,0,1,2.24.89l5.47,5.33a3.06,3.06,0,0,1,1,2.27,2.9,2.9,0,0,1-.91,2.27,3,3,0,0,1-2.26.89,3.15,3.15,0,0,1-2.27-.86l-5.5-5.58a3,3,0,0,1-.84-2.17,2.83,2.83,0,0,1,.8-2.22A3,3,0,0,1,146.74,57.53ZM126,65.87a3,3,0,0,1,2.31.9,2.87,2.87,0,0,1,.88,2.17l.07,7.65a3.19,3.19,0,0,1-.88,2.27,2.9,2.9,0,0,1-2.21.93,3.28,3.28,0,0,1-3.23-3.25l-.06-7.65a2.79,2.79,0,0,1,.9-2.16A3,3,0,0,1,126,65.87Z"/><path class="cls-1" d="M59.35,58.89a2.35,2.35,0,0,1-1.67-.9,3.14,3.14,0,0,1-.62-2,5.33,5.33,0,0,1,.22-1.49A6.77,6.77,0,0,1,57.9,53a8.46,8.46,0,0,1,1-1.37,6.58,6.58,0,0,1,1.19-1.12,3.32,3.32,0,0,1,1.9-.74A3.13,3.13,0,0,1,63.1,51h.34c.65,0,1,.57,1,1.69A6.21,6.21,0,0,1,64,54.85a6.73,6.73,0,0,1-1,1.85,6.46,6.46,0,0,1-1.6,1.39A6.25,6.25,0,0,1,59.35,58.89Zm.94-5.67a7.78,7.78,0,0,0-.59.9,8,8,0,0,0-.47,1,6.75,6.75,0,0,0-.32,1,3.71,3.71,0,0,0-.11.82,2.29,2.29,0,0,0,.15.82c.1.27.21.42.33.46a4.26,4.26,0,0,0,1.52-.68A4.69,4.69,0,0,0,62,56.24a6,6,0,0,0,.79-1.67,6.86,6.86,0,0,0,.29-2,3.6,3.6,0,0,0-.06-.74,1.15,1.15,0,0,0-.18-.47,4,4,0,0,0-1.44.76A7.15,7.15,0,0,0,60.29,53.22Z"/><path class="cls-1" d="M64.85,57.9c.06-.35.17-.81.32-1.38s.34-1.17.55-1.82.42-1.28.66-1.93.46-1.23.68-1.75.3-.66.42-.88a2.48,2.48,0,0,1,.41-.53,4.07,4.07,0,0,1,.53.13A3.49,3.49,0,0,1,69,50a3.28,3.28,0,0,1,.46.26,1.21,1.21,0,0,1,.31.26,6.49,6.49,0,0,0-.87,1.31,13.82,13.82,0,0,0-.76,1.9c.66-.58,1.24-1.13,1.75-1.66a13.31,13.31,0,0,0,1.43-1.77.6.6,0,0,1,.38-.09,1.64,1.64,0,0,1,.5.08.61.61,0,0,1,.33.23,4.8,4.8,0,0,0-.33,1.71,2.33,2.33,0,0,0,.24,1.19,1.37,1.37,0,0,1-.25.41,4.63,4.63,0,0,1-.5.58,3,3,0,0,1-.89-.69,3.3,3.3,0,0,1-.57-1,15.43,15.43,0,0,0-1.47,1.16,6.35,6.35,0,0,0-1,1.27,7.79,7.79,0,0,0-.73,1.59,20.77,20.77,0,0,0-.58,2.15,2.4,2.4,0,0,1-.4-.12l-.46-.24a3.38,3.38,0,0,1-.41-.31A.9.9,0,0,1,64.85,57.9Z"/><path class="cls-1" d="M77,68.66a6.74,6.74,0,0,1-1.88-.78,1.21,1.21,0,0,1-.49-1,8.6,8.6,0,0,1,.34-2c.23-.87.53-1.84.89-2.91s.79-2.2,1.27-3.37,1-2.29,1.44-3.36,1-2.06,1.44-3a16.84,16.84,0,0,1,1.23-2.07l-.17-1a3.93,3.93,0,0,1,1,.16c.41.12.82.25,1.24.41a10.48,10.48,0,0,1,1.1.5c.32.16.49.3.53.42a11.65,11.65,0,0,0-.2,1.74c0,.78-.07,1.6-.07,2.49,0,1.74.07,3.45.21,5.12a25.49,25.49,0,0,0,1,5.11c.27-1.28.55-2.56.85-3.83s.62-2.49.94-3.65.66-2.24,1-3.24.65-1.86.95-2.6A12.31,12.31,0,0,1,90.33,50c.26-.42.5-.65.71-.68a2.29,2.29,0,0,1,.59.2,4,4,0,0,1,.62.38,4,4,0,0,1,.54.48,2.94,2.94,0,0,1,.39.52,3.71,3.71,0,0,0-1.56,1.47,17.62,17.62,0,0,0-1.47,2.8,37.77,37.77,0,0,0-1.3,3.57q-.6,1.92-1,3.78c-.31,1.24-.54,2.39-.71,3.45a19.39,19.39,0,0,0-.29,2.55.09.09,0,0,0,0,.07l-.16,0h-.16a6.77,6.77,0,0,1-2-.27,1.89,1.89,0,0,1-1.14-.78c-.34-1.35-.63-2.65-.86-3.9s-.42-2.5-.57-3.75-.28-2.51-.37-3.78-.16-2.61-.21-4a13.44,13.44,0,0,0-1,1.89c-.34.77-.68,1.63-1,2.56s-.65,1.9-.95,2.93-.57,2-.79,3-.41,1.9-.54,2.78a14.35,14.35,0,0,0-.2,2.27c0,.33,0,.57,0,.72A1.68,1.68,0,0,0,77,68.66Z"/><path class="cls-1" d="M93.69,67.67a3.1,3.1,0,0,1-2.23-1.2,4.23,4.23,0,0,1-.83-2.69,7.56,7.56,0,0,1,.29-2,9.89,9.89,0,0,1,.84-2A11.38,11.38,0,0,1,93,57.94a9.26,9.26,0,0,1,1.59-1.49,4.33,4.33,0,0,1,2.53-1,4.27,4.27,0,0,1,1.54,1.7h.44c.87,0,1.3.75,1.3,2.26a8.1,8.1,0,0,1-.5,2.87,8.57,8.57,0,0,1-1.4,2.46A7.93,7.93,0,0,1,96.4,66.6,8.44,8.44,0,0,1,93.69,67.67Zm1.25-7.57a10.32,10.32,0,0,0-.78,1.2,11.27,11.27,0,0,0-.64,1.31,9.52,9.52,0,0,0-.42,1.28A5.16,5.16,0,0,0,93,65a3.2,3.2,0,0,0,.19,1.11c.13.35.28.55.44.6a5.45,5.45,0,0,0,2-.9,6.58,6.58,0,0,0,1.59-1.65,8,8,0,0,0,1.05-2.23,9,9,0,0,0,.38-2.67,5.17,5.17,0,0,0-.07-1,1.91,1.91,0,0,0-.24-.62,5.33,5.33,0,0,0-1.93,1A10.07,10.07,0,0,0,94.94,60.1Z"/><path class="cls-1" d="M102.81,57.63a1.67,1.67,0,0,1-.22-.61,4.55,4.55,0,0,1-.1-.81,7.64,7.64,0,0,0,1.23.1h1.08c.24-.48.51-1,.79-1.42s.57-.89.84-1.28a10.5,10.5,0,0,1,.76-1,3,3,0,0,1,.55-.52,2.79,2.79,0,0,1,.62.09,6,6,0,0,1,.78.21c.26.09.49.18.71.28a1.15,1.15,0,0,1,.44.29q-.74.9-1.26,1.68c-.36.52-.74,1.11-1.14,1.78h1a7.23,7.23,0,0,0,1-.08,1.11,1.11,0,0,1,.27.68,8.41,8.41,0,0,1-2.92.45c-.41.78-.77,1.54-1.09,2.3s-.59,1.5-.81,2.21-.39,1.37-.52,2a9,9,0,0,0-.18,1.68c0,.71.27,1.1.81,1.18a5.44,5.44,0,0,0,1.4-.36,4.46,4.46,0,0,0,1.17-.67.93.93,0,0,1,.17.36,2.11,2.11,0,0,1-.5.5c-.24.19-.49.38-.77.56a7,7,0,0,1-.81.47,1.82,1.82,0,0,1-.59.21,3.31,3.31,0,0,1-1.22-.24,5.21,5.21,0,0,1-1.12-.6,3.68,3.68,0,0,1-.82-.8,1.54,1.54,0,0,1-.32-.88,8.13,8.13,0,0,1,.16-1.46c.11-.58.26-1.22.45-1.91s.43-1.41.69-2.16.55-1.5.86-2.24Z"/></g></g></svg>